<svg
  xmlns="http://www.w3.org/2000/svg"
  width="28"
  height="30"
  fill="none"
  view-box="0 0 28 30"
>
  <path
    fill="#066BC8"
    d="M27.842.705H11.38S3.787 4.061 3.787 14.32v.571H.738a.586.586 0 00-.507.293c-.1.178-.1.398.009.576l10.158 13.015c.215.329.585.525.982.525.398 0 .768-.196.983-.525l10.158-13.015a.555.555 0 00.01-.576.586.586 0 00-.508-.293h-3.05a18.735 18.735 0 011.267-7.405c1.239-3.228 2.784-5.655 7.602-6.78zM15.248 15.407a2.58 2.58 0 01-.535.878c-.242.265-.553.489-.932.676-.38.188-.837.302-1.377.343v.965h-1.243v-.979c-.727-.082-1.353-.26-1.883-.53a5.901 5.901 0 01-1.417-.997l1.184-1.696c.36.27.763.49 1.206.663.44.17.901.265 1.376.288.156 0 .307-.009.457-.032.151-.023.289-.055.421-.11a.887.887 0 00.32-.21.54.54 0 00.142-.32.552.552 0 00-.156-.42 1.967 1.967 0 00-.43-.343 3.927 3.927 0 00-.534-.274l-.48-.197a13.94 13.94 0 01-1.079-.476 4.503 4.503 0 01-1.029-.676 3.144 3.144 0 01-.74-.965c-.188-.374-.265-.822-.233-1.353.023-.27.087-.548.196-.832a2.37 2.37 0 01.512-.79c.233-.243.53-.453.887-.631.357-.179.786-.298 1.285-.357v-.855H12.4v.855c.63.064 1.193.206 1.678.43.489.224.854.448 1.106.676l-1.23 1.705a4.424 4.424 0 00-2.039-.64c-.434-.032-.758.019-.964.147-.206.128-.302.283-.279.457.01.146.064.274.155.38.092.104.215.205.366.287.151.082.316.165.498.242.183.078.366.16.553.243l.202.078c.393.178.772.37 1.143.575.365.206.69.448.964.714.274.27.494.576.654.918.16.343.237.741.224 1.198-.01.325-.073.645-.183.965z"
  ></path>
</svg>
