<svg
  xmlns="http://www.w3.org/2000/svg"
  width="28"
  height="28"
  view-box="0 0 28 28"
  fill="none"
>
  <path
    d="M9.32304 12.301C9.1116 12.0705 8.85562 11.8854 8.57057 11.7567C8.27443 11.6252 7.95401 11.5573 7.62999 11.5573C7.30596 11.5573 6.98554 11.6252 6.6894 11.7567C6.40564 11.8876 6.15006 12.0724 5.93694 12.301C5.72126 12.5301 5.5484 12.796 5.42652 13.0861C5.30206 13.3826 5.23893 13.7013 5.24091 14.0229C5.23846 14.3514 5.30156 14.6772 5.42652 14.981C5.54608 15.2723 5.71921 15.5386 5.93694 15.7661C6.15462 15.9934 6.41445 16.1761 6.70194 16.3041C6.99676 16.4356 7.31597 16.5035 7.63877 16.5035C7.96158 16.5035 8.28077 16.4356 8.57559 16.3041C8.85956 16.1764 9.11533 15.9935 9.32806 15.7661C9.54178 15.5372 9.7118 15.2711 9.8297 14.981C9.95506 14.6772 10.0186 14.3515 10.0166 14.0229C10.0182 13.7012 9.95459 13.3825 9.8297 13.0861C9.70786 12.7968 9.53639 12.5311 9.32304 12.301Z"
    fill="#d0011b"
  ></path>
  <path
    d="M18.1281 11.9222C17.8668 11.7096 17.5418 11.5908 17.205 11.5848C17.0796 11.5748 16.8865 11.5685 16.6332 11.5635C16.3798 11.5585 16.1767 11.5573 16.0199 11.5573H15.5383V14.2022H16.6332C16.7485 14.2022 16.8564 14.2022 16.9567 14.1959C17.0571 14.1896 17.1411 14.1884 17.2075 14.1884C17.542 14.1827 17.8657 14.0692 18.1306 13.8648C18.3814 13.6679 18.5068 13.3431 18.5068 12.8929C18.5068 12.4427 18.3764 12.1291 18.1281 11.9222Z"
    fill="#d0011b"
  ></path>
  <path
    d="M27.6017 12.0288C28.3366 10.717 28.0573 9.67608 26.7639 8.90605C25.4705 8.13603 24.8142 6.99813 24.795 5.49236C24.7749 3.98743 24.012 3.22534 22.5062 3.20612C21.0004 3.18689 19.863 2.53057 19.0938 1.23716C18.3254 -0.0554085 17.2841 -0.33466 15.9698 0.399413C14.6555 1.13349 13.3428 1.13349 12.0319 0.399413C10.7176 -0.335496 9.67625 -0.0562446 8.9079 1.23716C8.13954 2.53057 7.00205 3.18689 5.49545 3.20612C3.99051 3.22702 3.2276 3.9891 3.20669 5.49236C3.18579 6.99562 2.52948 8.13352 1.23774 8.90605C-0.0564984 9.67441 -0.335754 10.7153 0.399991 12.0288C1.13574 13.3423 1.13574 14.6562 0.399991 15.9705C-0.334918 17.2823 -0.0556624 18.3236 1.23774 19.0945C2.53115 19.8653 3.18746 21.0024 3.20669 22.5056C3.22843 24.0106 3.99135 24.7731 5.49545 24.7931C6.99955 24.8132 8.13536 25.4699 8.90287 26.7633C9.67206 28.0559 10.7134 28.3347 12.0269 27.5998C13.3403 26.8649 14.653 26.8649 15.9648 27.5998C17.2774 28.3356 18.3187 28.0568 19.0888 26.7633C19.8588 25.4699 20.9963 24.8132 22.5012 24.7931C24.0061 24.7747 24.7691 24.0122 24.79 22.5056C24.8109 20.999 25.4672 19.862 26.7589 19.0945C28.0515 18.3244 28.3307 17.2831 27.5967 15.9705C26.8626 14.6578 26.8643 13.3439 27.6017 12.0288ZM11.7008 15.7736C11.2667 16.8573 10.4291 17.7303 9.36439 18.2091C8.81848 18.4497 8.22843 18.574 7.63183 18.574C7.03524 18.574 6.44519 18.4497 5.89928 18.2091C5.37382 17.9745 4.89891 17.6402 4.50095 17.2246C4.10105 16.8046 3.78293 16.3138 3.56287 15.7773C3.10683 14.6577 3.10457 13.4046 3.5566 12.2834C3.77388 11.7494 4.08954 11.2611 4.48715 10.8437C4.88437 10.4288 5.35955 10.0964 5.88547 9.86545C6.43376 9.62882 7.02464 9.50676 7.6218 9.50676C8.21897 9.50676 8.80983 9.62882 9.35812 9.86545C9.88261 10.0961 10.3575 10.4262 10.7565 10.8374C11.1553 11.2522 11.473 11.738 11.6933 12.2696C11.9248 12.8258 12.0421 13.4229 12.0382 14.0253C12.0406 14.6245 11.926 15.2184 11.7008 15.7736ZM18.2109 18.4599L16.5805 16.131H15.5334V18.4599H13.5619V9.64096H16.6972C16.8903 9.64096 17.0822 9.64096 17.2753 9.65476C17.7035 9.66911 18.1267 9.75079 18.5294 9.8968C18.9038 10.0303 19.2457 10.2414 19.5327 10.5163C19.821 10.8007 20.0462 11.1425 20.1936 11.5196C20.3625 11.9595 20.4443 12.428 20.4344 12.8991C20.4344 13.6717 20.2714 14.3012 19.9453 14.7878C19.6265 15.2685 19.167 15.639 18.6298 15.8488L20.4708 18.4599H18.2109ZM24.1228 18.4599H21.9908V9.64096H24.1228V18.4599Z"
    fill="#d0011b"
  ></path>
</svg>
