<svg
  xmlns="http://www.w3.org/2000/svg"
  view-box="0 0 233 26"
  height="26"
  width="233"
>
  <g fill="#ee4d2d" fill-rule="evenodd">
    <path
      d="M132.85.68h7.23l-3.9,7.37,5.06,1.73L130.54,26l1.16-11.13-5.06-1.73Z"
    />
    <path
      d="M.81,15A8,8,0,0,1,3,9.42,7.75,7.75,0,0,1,5.49,7.7a7.5,7.5,0,0,1,3-.62,7.57,7.57,0,0,1,3.06.62A7.76,7.76,0,0,1,14,9.41a8.08,8.08,0,0,1,1.64,2.51,8.14,8.14,0,0,1,0,6.16,7.83,7.83,0,0,1-4.1,4.26,7.18,7.18,0,0,1-3,.65,7.28,7.28,0,0,1-3-.65,7.75,7.75,0,0,1-2.45-1.72,8.22,8.22,0,0,1-1.64-2.54A7.79,7.79,0,0,1,.81,15Zm7.74,5.1a4.61,4.61,0,0,0,1.93-.41A5,5,0,0,0,12,18.58a5.1,5.1,0,0,0,1-1.61,5.18,5.18,0,0,0,.37-2A5.14,5.14,0,0,0,12,11.46a5.25,5.25,0,0,0-1.55-1.1A4.61,4.61,0,0,0,8.55,10a4.69,4.69,0,0,0-1.94.41,5.57,5.57,0,0,0-1.56,1.1A5.2,5.2,0,0,0,3.64,15,5,5,0,0,0,4,17a4.93,4.93,0,0,0,1,1.61A5.25,5.25,0,0,0,6.61,19.7,4.69,4.69,0,0,0,8.55,20.11Z"
    />
    <path d="M18,7.32H28.52v2.85H20.88v3.7h7.49v2.85H20.88v6.07H18Z" />
    <path
      d="M30.21,7.32H41v2.85H33v3.7l7.76,0v2.82H33.09v3.22H41v2.85H30.21Z"
    />
    <path
      d="M43.15,7.32h5.32l1.18,0a6.87,6.87,0,0,1,2.18.42,5.13,5.13,0,0,1,1.72,1.06,4.8,4.8,0,0,1,1.12,1.7,6.22,6.22,0,0,1,.4,2.35,5.65,5.65,0,0,1-.88,3.3A4.78,4.78,0,0,1,51.78,18l3.43,4.81H51.76l-3.12-4.4H45.93v4.4H43.15Zm4.21,8.27h1.16l.59,0h.42a5.05,5.05,0,0,0,1.08-.2,2.61,2.61,0,0,0,.87-.47,2.24,2.24,0,0,0,.59-.81,2.83,2.83,0,0,0,.22-1.18,2.81,2.81,0,0,0-.22-1.17,2.41,2.41,0,0,0-.59-.83,2.55,2.55,0,0,0-.87-.52,3.7,3.7,0,0,0-1.08-.21h-.42l-.59,0H45.93v5.47Z"
    />
    <path d="M56.18,10.17V7.32H68.56v2.85H63.84v12.6H61V10.17Z" />
    <path
      d="M73.2,7.32h2.47l6.57,15.47H79.15l-.8-1.93H70.52l-.8,1.93H66.63ZM71.65,18.1h5.57l-2.79-6.86Z"
    />
    <path
      d="M82.49,20.81l1.57-2.2a9.12,9.12,0,0,0,2.15,1.32,5.63,5.63,0,0,0,2.22.37,3.66,3.66,0,0,0,1.94-.49,1.48,1.48,0,0,0,.72-1.3,1.34,1.34,0,0,0-.33-.91,3.57,3.57,0,0,0-.81-.68,5.24,5.24,0,0,0-1-.49l-.89-.33c-.63-.23-1.24-.46-1.84-.71a6.38,6.38,0,0,1-1.58-.9,4.54,4.54,0,0,1-1.12-1.31,3.9,3.9,0,0,1-.42-1.9,3.75,3.75,0,0,1,.33-1.52,4.09,4.09,0,0,1,1-1.37A4.87,4.87,0,0,1,86,7.4,6.34,6.34,0,0,1,88.31,7,7.69,7.69,0,0,1,90,7.2a7.46,7.46,0,0,1,2.51,1,6.54,6.54,0,0,1,.79.57l-1.5,2.13a3.58,3.58,0,0,0-.64-.39c-.27-.13-.56-.25-.87-.38a8.1,8.1,0,0,0-1-.3,4.49,4.49,0,0,0-1-.12,3.9,3.9,0,0,0-1.13.11,2.53,2.53,0,0,0-.79.35,1.88,1.88,0,0,0-.46.48,1.16,1.16,0,0,0-.16.56,1.28,1.28,0,0,0,.21.73,2,2,0,0,0,.56.55,4.91,4.91,0,0,0,.79.43l.93.37.32.12c.6.23,1.2.49,1.82.77a8.43,8.43,0,0,1,1.71,1.05,5.09,5.09,0,0,1,1.27,1.43,3.82,3.82,0,0,1,.49,2,4,4,0,0,1-.37,1.7,4.29,4.29,0,0,1-1.08,1.41,5.39,5.39,0,0,1-1.69,1,6.32,6.32,0,0,1-2.25.38,8.12,8.12,0,0,1-3.3-.6A9.69,9.69,0,0,1,82.49,20.81Z"
    />
    <path
      d="M101.37,7.32h5.32l1.18,0a6.87,6.87,0,0,1,2.18.42,5.13,5.13,0,0,1,1.72,1.06,4.8,4.8,0,0,1,1.12,1.7,6.22,6.22,0,0,1,.4,2.35,5.58,5.58,0,0,1-.88,3.3A4.78,4.78,0,0,1,110,18l3.44,4.81H110l-3.12-4.4h-2.71v4.4h-2.78Zm4.21,8.27h1.16l.59,0h.42a5.05,5.05,0,0,0,1.08-.2,2.61,2.61,0,0,0,.87-.47,2.13,2.13,0,0,0,.59-.81,2.83,2.83,0,0,0,.22-1.18,2.81,2.81,0,0,0-.22-1.17,2.28,2.28,0,0,0-.59-.83,2.55,2.55,0,0,0-.87-.52,3.7,3.7,0,0,0-1.08-.21h-.42l-.59,0h-2.59v5.47Z"
    />
    <path
      d="M115.13,7.32h10.73v2.85H118v3.7l7.76,0v2.82H118v3.22h7.86v2.85H115.13Z"
    />
    <path
      d="M138,22.79l6.58-15.47H147l6.58,15.47h-3.09l-.8-1.93h-7.84l-.79,1.93Zm5-4.69h5.56l-2.78-6.86Zm3.6-15.21H149l-2.54,3.44h-1.7Z"
    />
    <path
      d="M155.14,22.79V7.32h3.22l4.83,10.93L168,7.32h3.17V22.79h-2.86V13L164,22.79h-1.72L158,13v9.81Z"
    />
    <path
      d="M173.86,7.32h5.32l1.18,0a6.92,6.92,0,0,1,2.18.42,5,5,0,0,1,1.71,1.06,4.69,4.69,0,0,1,1.13,1.7,6.42,6.42,0,0,1,.4,2.35,6.53,6.53,0,0,1-.4,2.35,4.49,4.49,0,0,1-1.13,1.69,4.92,4.92,0,0,1-1.71,1,7.53,7.53,0,0,1-2.18.4l-1.15,0h-2.57v4.4h-2.78Zm2.78,8.27h2.58l.6,0h.42a5,5,0,0,0,1.07-.2,2.76,2.76,0,0,0,.88-.47,2.24,2.24,0,0,0,.59-.81,3.25,3.25,0,0,0,0-2.35,2.41,2.41,0,0,0-.59-.83,2.7,2.7,0,0,0-.88-.52,3.63,3.63,0,0,0-1.07-.21h-.42l-.6,0h-2.58Z"
    />
    <path
      d="M190.66,7.32h2.47l6.57,15.47h-3.09l-.8-1.93H188l-.8,1.93h-3.1ZM189.11,18.1h5.56l-2.78-6.86Z"
    />
    <path
      d="M199.1,15.06a7.86,7.86,0,0,1,.61-3.1,8.21,8.21,0,0,1,1.7-2.54,8,8,0,0,1,2.51-1.72,8.35,8.35,0,0,1,6.66.15,10.59,10.59,0,0,1,2.64,1.84L211.53,12a8.2,8.2,0,0,0-1.91-1.48,5.3,5.3,0,0,0-2.69-.62,4.9,4.9,0,0,0-2,.41,4.85,4.85,0,0,0-1.58,1.11,5.35,5.35,0,0,0-1,1.63,5.29,5.29,0,0,0-.38,2,5.22,5.22,0,0,0,.39,2,5,5,0,0,0,1.06,1.61A4.79,4.79,0,0,0,205,19.76a4.94,4.94,0,0,0,1.92.37,6,6,0,0,0,1.94-.28,4.59,4.59,0,0,0,1.4-.7,3.45,3.45,0,0,0,.87-.93,2.82,2.82,0,0,0,.38-1h-3.6v-2.8h6.67v.85a7.92,7.92,0,0,1-.64,3.27,7.08,7.08,0,0,1-4.17,3.91,8.46,8.46,0,0,1-2.92.51h-.08a7.27,7.27,0,0,1-3-.63,7.62,7.62,0,0,1-2.43-1.72,8.65,8.65,0,0,1-1.63-2.53A7.79,7.79,0,0,1,199.1,15.06Z"
    />
    <path
      d="M215.9,15a8.14,8.14,0,0,1,2.23-5.59,7.75,7.75,0,0,1,2.45-1.72,7.79,7.79,0,0,1,6.09,0,7.76,7.76,0,0,1,2.46,1.71,8.08,8.08,0,0,1,1.64,2.51,7.78,7.78,0,0,1,.61,3.09,8,8,0,0,1-.6,3.07,7.87,7.87,0,0,1-1.64,2.54,8,8,0,0,1-2.45,1.72,7.43,7.43,0,0,1-6.08,0,7.68,7.68,0,0,1-2.46-1.72,8.22,8.22,0,0,1-1.64-2.54A7.79,7.79,0,0,1,215.9,15Zm7.74,5.1a4.61,4.61,0,0,0,1.93-.41,4.85,4.85,0,0,0,1.55-1.12,5.1,5.1,0,0,0,1-1.61,5.18,5.18,0,0,0,.37-2,5,5,0,0,0-3-4.65,4.75,4.75,0,0,0-3.86,0,5.3,5.3,0,0,0-1.56,1.1,5,5,0,0,0-1,1.61,5.08,5.08,0,0,0-.38,1.94,5.18,5.18,0,0,0,.38,2,5,5,0,0,0,1,1.61,5,5,0,0,0,1.56,1.12A4.61,4.61,0,0,0,223.64,20.11Z"
    />
  </g>
</svg>
