<svg
  xmlns="http://www.w3.org/2000/svg"
  view-box="0 0 122 21"
  height="21"
  width="122"
>
  <g fill="#ee4d2d" fill-rule="evenodd">
    <path
      d="M0 16.195h3.402v-5.233h4.237V8H3.402V5.037h5.112V2.075H0zm29.784 0l-.855-2.962h-4.335l-.836 2.962H20.26l4.723-14.12h3.576l4.724 14.12zM26.791 5.294h-.04s-.31 1.54-.563 2.43l-.797 2.744h2.74l-.777-2.745c-.252-.889-.563-2.43-.563-2.43zm7.017 9.124s1.807 2.014 5.073 2.014c3.13 0 4.898-2.034 4.898-4.384 0-4.463-6.259-4.147-6.259-5.925 0-.79.778-1.106 1.477-1.106 1.672 0 3.071 1.245 3.071 1.245l1.439-2.824s-1.477-1.6-4.47-1.6c-2.76 0-4.918 1.718-4.918 4.325 0 4.345 6.258 4.285 6.258 5.964 0 .85-.758 1.126-1.457 1.126-1.75 0-3.324-1.462-3.324-1.462zm12.303 1.777h3.402v-5.53h5.054v5.53h3.401V2.075h-3.401v5.648h-5.054V2.075h-3.402zm66.219-1.678s1.69 1.915 4.762 1.915c2.877 0 4.548-1.876 4.548-4.107 0-4.483-6.492-3.871-6.492-6.36 0-.987.914-1.678 2.08-1.678 1.73 0 3.052 1.224 3.052 1.224l1.088-2.073s-1.4-1.501-4.12-1.501c-2.644 0-4.627 1.738-4.627 4.068 0 4.305 6.512 3.87 6.512 6.379 0 1.145-.953 1.698-2.002 1.698-1.944 0-3.44-1.48-3.44-1.48zm-14.155 1.678l-1.166-3.594h-4.84l-1.166 3.594h-2.585l4.859-14.021h2.624l4.86 14.021zM94.618 4.603h-.039s-.31 1.382-.583 2.172l-1.224 3.752h3.615l-1.225-3.752c-.252-.79-.544-2.172-.544-2.172zm7.911 11.592h8.475v-2.192h-5.967V2.173h-2.508zm-24.207 0h8.572v-2.192H80.83v-3.772h4.645V8.04H80.83V4.366h5.753V2.174h-8.26zM13.757.722L19.9.885 16.51 6.583l3.87 1.086-8.028 12.437.641-8.42-3.613-1.025zM65.58 1.84h4.55c.76 0 2.603.261 4.171 1.8C75.87 5.18 76.2 7.444 76.2 8.677S75.87 12.13 74.46 14c-1.41 1.869-3.878 2.196-4.574 2.196H65.58zM69.167 14c.642 0 2.399 0 3.45-1.388a6.08 6.08 0 0 0 1.23-3.692c0-.853 0-2.385-1.23-3.489-1.232-1.104-2.477-1.11-3.107-1.11h-1.474V14z"
    />
  </g>
</svg>
