<svg
  xmlns="http://www.w3.org/2000/svg"
  height="21"
  view-box="0 0 171 21"
  width="171"
>
  <path
    d="m686.074219 522.083984h2.851562c.136719 1.142578 1.289063 1.875 2.949219 1.875 1.533203 0 2.617188-.742187 2.617188-1.80664 0-.898438-.703126-1.416016-2.431641-1.78711l-1.835938-.390625c-2.568359-.537109-3.828125-1.875-3.828125-4.023437 0-2.65625 2.138672-4.404297 5.390625-4.404297 3.105469 0 5.302735 1.738281 5.390625 4.248047h-2.773437c-.136719-1.113281-1.171875-1.855469-2.597656-1.855469-1.47461 0-2.451172.683594-2.451172 1.757813 0 .86914.673828 1.367187 2.324219 1.71875l1.699218.361328c2.832032.595703 4.052735 1.816406 4.052735 4.003906 0 2.841797-2.177735 4.580078-5.712891 4.580078-3.359375 0-5.537109-1.65039-5.644531-4.277344zm26.608941 3.916016h-2.949219v-5.888672h-6.347656v5.888672h-2.949219v-14.091797h2.949219v5.683594h6.347656v-5.683594h2.949219zm9.8023-14.453125c4.160156 0 6.767578 2.841797 6.767578 7.402344 0 4.570312-2.597656 7.412109-6.767578 7.412109-4.179687 0-6.787109-2.841797-6.787109-7.412109 0-4.570313 2.646484-7.402344 6.787109-7.402344zm0 2.587891c-2.285156 0-3.769531 1.865234-3.769531 4.814453 0 2.939453 1.455078 4.824219 3.769531 4.824219 2.294922 0 3.759766-1.884766 3.759766-4.824219 0-2.949219-1.464844-4.814453-3.759766-4.814453zm15.769097 12.226562c-4.082031 0-6.611328-2.822266-6.611328-7.412109 0-4.580078 2.519531-7.402344 6.611328-7.402344 3.339844 0 5.898438 2.216797 6.113282 5.283203h-2.871094c-.283203-1.621094-1.5625-2.685547-3.242188-2.685547-2.216797 0-3.59375 1.835938-3.59375 4.804688s1.376953 4.814453 3.603516 4.814453c1.689453 0 2.958984-.996094 3.242187-2.548828h2.871094c-.24414 3.046875-2.724609 5.146484-6.123047 5.146484zm12.009332-.361328h-2.949219v-14.091797h2.949219v6.279297h.175781l5.205078-6.279297h3.28125l-5.136718 6.181641 5.498046 7.910156h-3.535156l-4.091797-5.898438-1.396484 1.650391zm14.411675 0h-2.949219v-14.091797h2.949219zm6.462457 0h-2.822266v-14.091797h2.460938l6.484375 8.779297h.175781v-8.779297h2.822266v14.091797h-2.441407l-6.503906-8.818359h-.175781zm25.144097-5.751953c0 3.769531-2.402344 6.113281-6.25 6.113281-4.189453 0-6.757812-2.8125-6.757812-7.421875 0-4.541015 2.58789-7.392578 6.689453-7.392578 3.330078 0 5.78125 1.923828 6.191406 4.853516h-2.929688c-.439453-1.425782-1.621093-2.25586-3.261718-2.25586-2.275391 0-3.671875 1.806641-3.671875 4.765625 0 3.017578 1.464843 4.853516 3.789062 4.853516 1.933594 0 3.271485-1.142578 3.330078-2.841797l.009766-.253906h-3.056641v-2.216797h5.917969zm7.788195 1.835937h2.851562c.136719 1.142578 1.289063 1.875 2.949219 1.875 1.533203 0 2.617187-.742187 2.617187-1.80664 0-.898438-.703125-1.416016-2.43164-1.78711l-1.835938-.390625c-2.568359-.537109-3.828125-1.875-3.828125-4.023437 0-2.65625 2.138672-4.404297 5.390625-4.404297 3.105469 0 5.302735 1.738281 5.390625 4.248047h-2.773437c-.136719-1.113281-1.171875-1.855469-2.597657-1.855469-1.474609 0-2.451171.683594-2.451171 1.757813 0 .86914.673828 1.367187 2.324218 1.71875l1.699219.361328c2.832031.595703 4.052734 1.816406 4.052734 4.003906 0 2.841797-2.177734 4.580078-5.71289 4.580078-3.359375 0-5.53711-1.65039-5.644531-4.277344zm23.415581 3.916016-1.064453-3.359375h-4.951172l-1.083984 3.359375h-2.958985l4.892578-14.091797h3.466797l4.892578 14.091797zm-3.613281-11.162109-1.767578 5.527343h3.691406l-1.748047-5.527343zm18.649956 8.59375v2.568359h-9.21875v-14.091797h2.949219v11.523438zm12.233941.048828v2.519531h-9.335937v-14.091797h9.335937v2.519531h-6.386718v3.291016h6.02539v2.333984h-6.02539v3.427735z"
    fill="#d0011b"
    fill-rule="evenodd"
    transform="translate(-685 -509)"
  />
</svg>
