<svg
  xmlns="http://www.w3.org/2000/svg"
  view-box="0 0 85 21"
  height="21"
  width="85"
>
  <g fill="#d0011b" fill-rule="evenodd">
    <path
      d="M0 2.594v16.11h1.836V4.358h2.25c-.45 1.422-1.08 3.024-1.872 4.806 1.206 1.494 1.818 2.844 1.818 4.05 0 .288-.072.486-.216.594s-.432.162-.864.198c-.27 0-.612-.036-1.008-.108l.612 1.908c1.332-.018 2.286-.27 2.826-.738.36-.36.54-.99.54-1.854-.09-1.224-.684-2.664-1.8-4.338A102.326 102.326 0 0 0 5.976 4.07V2.594zm8.334 4.95v1.494h4.554V7.544zm4.554-1.692V4.34H8.334v1.512zm-3.024 4.896h-1.53v5.4c.918-.288 1.818-.63 2.718-1.062l.45 1.746c-1.332.558-3.006 1.098-5.022 1.602l-.45-1.656c.288-.09.45-.27.45-.522V2.576h8.244v8.172h-3.168c.18.864.468 1.656.864 2.394.756-.468 1.476-1.098 2.16-1.926l1.188 1.206a9.086 9.086 0 0 1-2.466 2.052c.738.936 1.692 1.764 2.88 2.448l-1.044 1.656c-2.916-1.926-4.68-4.536-5.274-7.83zm18.234-8.604v1.638h-3.186v1.71h3.186v1.566H24.03v1.728h9.936V7.058h-4.05V5.492h3.096v-1.71h-3.096V2.144zm-3.654 8.334h5.598V9.272h1.836v1.206h1.908v1.746h-1.908v4.194c0 1.422-.612 2.142-1.818 2.142H27.9l-.396-1.764a18.18 18.18 0 0 0 1.926.126c.396 0 .612-.324.612-.936v-3.762h-5.598zm1.656 2.106c.882 1.026 1.566 1.908 2.07 2.664l-1.494 1.044c-.504-.828-1.188-1.764-2.052-2.79zm-2.682-9.36v13.572h-1.764v-1.098h-1.89v1.53h-1.8V3.224zM19.764 13.97h1.89v-3.726h-1.89zm0-5.418h1.89V4.934h-1.89zM61.206 2v1.764h-2.934v1.71h2.934V7.04h-3.924v1.764h9.72V7.04h-3.906V5.474h3.114v-1.71h-3.114V2zm-3.528 8.388h5.436v-.972h1.836v.972h1.872v1.764H64.95v4.518c0 1.26-.594 1.89-1.746 1.89h-2.286l-.378-1.764c.702.072 1.386.126 2.034.126.36 0 .54-.234.54-.702v-4.068h-5.436zm1.602 2.196c.9 1.026 1.584 1.908 2.088 2.664l-1.494 1.044c-.504-.846-1.188-1.782-2.052-2.79zM52.53 7.4h1.152v4.302c-1.08.324-2.16.576-3.276.774l.45 1.818c.954-.252 1.89-.54 2.826-.846v5.238H55.5V12.8c.468-.18.954-.378 1.44-.576V10.46c-.468.216-.936.414-1.44.612V7.4h1.35V5.6H55.5V2.054h-1.818V5.6h-.9c.072-.648.108-1.332.144-2.016l-1.692-.126a24.82 24.82 0 0 1-.918 5.976l1.638.468c.234-.81.432-1.638.576-2.502zm16.38-4.554v1.332h6.966v.576h-6.03V5.96h13.788V4.754h-5.958v-.576h6.858V2.846h-6.858v-.81h-1.8v.81zm.72 3.69h14.22v3.186H69.63zm12.528 1.998v-.828h-2.592v.828zm-4.248 0v-.828h-2.394v.828zm-4.05 0v-.828h-2.538v.828zm-3.42 1.782h12.636v6.354H80.25c1.584.216 3.114.486 4.59.81l-.54 1.332a45.472 45.472 0 0 0-6.084-1.242l.468-.9h-4.032l.576.756c-1.368.558-3.366 1.026-5.958 1.386l-.756-1.314c1.962-.216 3.564-.504 4.788-.828H70.44zm10.836 5.112v-.612H72.24v.612zm-9.036-1.674h9.036v-.594H72.24zm0-1.638h9.036v-.648H72.24zM41.02.746l6.143.164-3.392 5.697 3.871 1.086-8.028 12.437.641-8.42-3.613-1.024z"
    />
  </g>
</svg>
