<svg
  xmlns="http://www.w3.org/2000/svg"
  view-box="0 0 466 52"
  height="52"
  width="466"
>
  <g fill="white" fill-rule="evenodd">
    <path
      d="M212.12 30.12h-4.29v11.63h-7.93V8.87h12.94c3.9 0 6.95.86 9.15 2.59s3.3 4.18 3.3 7.33c0 2.29-.46 4.18-1.39 5.69-.93 1.5-2.38 2.72-4.35 3.66l6.87 13.28v.34h-8.49l-5.81-11.64zm-4.29-6.1h5.01c1.5 0 2.64-.4 3.4-1.19.76-.79 1.14-1.9 1.14-3.32s-.38-2.53-1.15-3.34c-.77-.81-1.9-1.21-3.39-1.21h-5.01v9.06zM249.27 27.79H236.8v7.86h14.73v6.1h-22.66V8.87h22.7v6.12H236.8v6.93h12.47v5.87zM299.43 35.61h-10.86l-1.9 6.14h-8.47l12.06-32.89h7.45l12.15 32.89h-8.52l-1.91-6.14zm4.22-29.22v.29l-6.01.01-3.59-3.07-3.59 3.07-5.87-.01V6.3l7.3-6.25h4.36l7.4 6.34zm-13.19 23.1h7.07l-3.55-11.41-3.52 11.41zM321.47 8.87l7.34 22.88 7.32-22.88h10.44v32.89h-7.95v-7.68l.77-15.72-7.95 23.4h-5.24l-7.97-23.42.77 15.74v7.68h-7.93V8.87h10.4zM358.32 30.59v11.16h-7.93V8.87h13.12c2.52 0 4.74.46 6.67 1.39 1.93.93 3.43 2.24 4.49 3.95s1.59 3.65 1.59 5.82c0 3.21-1.15 5.77-3.44 7.69s-5.45 2.88-9.45 2.88h-5.05zm0-6.12h5.2c1.54 0 2.71-.38 3.51-1.15s1.21-1.85 1.21-3.25c0-1.54-.42-2.76-1.24-3.68s-1.96-1.39-3.39-1.4h-5.29v9.48zM393.96 35.61H383.1l-1.9 6.14h-8.47l12.06-32.89h7.45l12.15 32.89h-8.52l-1.91-6.14zm-8.97-6.12h7.07l-3.55-11.41-3.52 11.41zM432.04 37.69c-1.22 1.36-3 2.45-5.35 3.28-2.35.83-4.92 1.24-7.72 1.24-4.31 0-7.75-1.32-10.32-3.95s-3.95-6.3-4.13-11l-.02-2.85c0-3.24.57-6.06 1.72-8.48 1.14-2.42 2.78-4.28 4.91-5.58 2.13-1.3 4.6-1.95 7.4-1.95 4.1 0 7.28.94 9.54 2.81s3.59 4.67 3.96 8.39h-7.63c-.27-1.84-.86-3.15-1.76-3.93-.9-.78-2.18-1.17-3.84-1.17-1.99 0-3.52.84-4.61 2.53-1.08 1.69-1.63 4.1-1.65 7.23v1.99c0 3.28.56 5.75 1.68 7.4 1.12 1.65 2.89 2.47 5.3 2.47 2.06 0 3.6-.46 4.61-1.38v-5.1h-5.51V24.2h13.44v13.49zM463.29 25.99c0 3.21-.6 6.05-1.78 8.52-1.19 2.47-2.88 4.37-5.07 5.7-2.19 1.33-4.69 2-7.49 2s-5.29-.64-7.45-1.93c-2.17-1.29-3.86-3.13-5.07-5.52-1.21-2.39-1.85-5.14-1.91-8.24v-1.85c0-3.22.59-6.06 1.77-8.53 1.18-2.46 2.88-4.36 5.08-5.7s4.72-2.01 7.53-2.01c2.79 0 5.27.66 7.45 1.99s3.88 3.21 5.09 5.66 1.83 5.25 1.84 8.41v1.5zm-8.06-1.38c0-3.27-.54-5.75-1.64-7.44-1.09-1.69-2.65-2.54-4.69-2.54-3.98 0-6.08 2.98-6.3 8.94l-.02 2.42c0 3.22.53 5.7 1.6 7.43 1.07 1.73 2.66 2.6 4.77 2.6 2 0 3.55-.85 4.63-2.55 1.08-1.7 1.63-4.15 1.65-7.34v-1.52zM29.99 26.17c0 3.22-.56 6.05-1.67 8.48-1.12 2.43-2.71 4.3-4.78 5.6-2.07 1.3-4.45 1.95-7.15 1.95-2.67 0-5.04-.65-7.13-1.95-2.09-1.3-3.7-3.16-4.83-5.57-1.14-2.41-1.71-5.19-1.73-8.33V24.5c0-3.21.57-6.04 1.71-8.49 1.14-2.45 2.74-4.33 4.81-5.64 2.07-1.3 4.45-1.95 7.13-1.95 2.68 0 5.06.64 7.13 1.93 2.07 1.29 3.67 3.14 4.8 5.56s1.7 5.23 1.72 8.44v1.82zm-5.71-1.72c0-3.65-.69-6.44-2.07-8.38-1.38-1.94-3.33-2.91-5.86-2.91-2.47 0-4.4.97-5.79 2.9-1.39 1.93-2.1 4.67-2.13 8.21v1.9c0 3.61.7 6.41 2.11 8.38 1.41 1.97 3.36 2.96 5.86 2.96 2.53 0 4.48-.96 5.84-2.89 1.36-1.93 2.04-4.74 2.04-8.45v-1.72zM53.43 27.82H40.2v13.94h-5.71V8.87h20.89v4.61H40.2v9.78h13.24v4.56zM77.91 27.07H64.4v10.12h15.79v4.56h-21.5V8.87h21.35v4.61H64.4v9.08h13.51v4.51zM95.73 29.1h-6.37v12.65h-5.71V8.87h11.56c3.79 0 6.72.85 8.79 2.56 2.06 1.7 3.09 4.17 3.09 7.39 0 2.2-.53 4.04-1.59 5.53-1.06 1.48-2.54 2.63-4.44 3.42l7.39 13.69v.29h-6.12l-6.6-12.65zm-6.37-4.6h5.87c1.93 0 3.43-.49 4.52-1.46s1.63-2.3 1.63-3.99c0-1.76-.5-3.13-1.5-4.09s-2.5-1.46-4.48-1.49h-6.03V24.5zM133.94 13.47h-10.25v28.28h-5.67V13.47h-10.16v-4.6h26.09v4.6zM152.75 34.1h-12.74l-2.67 7.66h-5.94l12.42-32.89h5.13l12.45 32.89h-5.96l-2.69-7.66zm-11.13-4.61h9.53l-4.77-13.64-4.76 13.64zM181.12 33.28c0-1.45-.51-2.56-1.52-3.34-1.02-.78-2.85-1.57-5.5-2.37s-4.76-1.69-6.32-2.67c-3-1.88-4.49-4.34-4.49-7.36 0-2.65 1.08-4.83 3.24-6.55 2.16-1.72 4.97-2.57 8.41-2.57 2.29 0 4.33.42 6.12 1.26 1.79.84 3.2 2.04 4.22 3.6a9.284 9.284 0 011.54 5.18h-5.69c0-1.72-.54-3.06-1.62-4.03-1.08-.97-2.62-1.46-4.62-1.46-1.87 0-3.32.4-4.35 1.2-1.03.8-1.55 1.91-1.55 3.34 0 1.21.56 2.21 1.67 3.02 1.11.8 2.95 1.59 5.51 2.35 2.56.76 4.61 1.63 6.17 2.6 1.55.97 2.69 2.09 3.41 3.34.72 1.26 1.08 2.73 1.08 4.42 0 2.74-1.05 4.92-3.15 6.54-2.1 1.62-4.95 2.43-8.55 2.43-2.38 0-4.57-.44-6.56-1.32-2-.88-3.55-2.1-4.65-3.65s-1.66-3.36-1.66-5.42h5.71c0 1.87.62 3.31 1.85 4.34 1.23 1.02 3 1.54 5.31 1.54 1.99 0 3.48-.4 4.48-1.21 1-.82 1.51-1.88 1.51-3.21z"
    />
    <path
      fill-rule="evenodd"
      clip-rule="evenodd"
      d="M265.71 1.35h14.45l-7.8 14.74 10.12 3.47-21.4 32.38 2.31-22.26-10.12-3.47z"
    />
  </g>
</svg>
