<svg
  xmlns="http://www.w3.org/2000/svg"
  view-box="0 0 32 32"
  width="32"
  height="32"
>
  <path
    fill="#ee4d2d"
    d="M28.65,16.92V4.73S19,4.46,15.94,0C12.45,4.41,3.23,4.73,3.23,4.73V16.92S3,27.22,15.94,32C28.9,27.22,28.65,16.92,28.65,16.92Z"
  />
  <path
    fill="#fff"
    d="M25.56,13.67,15.26,24a.68.68,0,0,1-1,0L8.33,18a.68.68,0,0,1,0-1l1.55-1.55a.68.68,0,0,1,1,0l3.44,3.43a.68.68,0,0,0,1,0L23,11.15a.68.68,0,0,1,1,0l1.55,1.54A.69.69,0,0,1,25.56,13.67Z"
  />
  <path
    fill="#fff"
    d="M25.56,13.67,15.26,24a.68.68,0,0,1-1,0L8.33,18a.68.68,0,0,1,0-1l1.55-1.55a.68.68,0,0,1,1,0l3.44,3.43a.68.68,0,0,0,1,0L23,11.15a.68.68,0,0,1,1,0l1.55,1.54A.69.69,0,0,1,25.56,13.67Z"
  />
</svg>
